# xmcd
#
# Track frame offsets:
#	150
#	12451
#	23222
#	31718
#	44021
#	60482
#	77309
#	90008
#	109841
#	121779
#	131613
#	144529
#	166009
#	179665
#	193081
#	214054
#	225568
#	238086
#	252954
#	268320
#	281474
#	292327
#
# Disc length: 4061 seconds
#
# Revision: 1
# Processed by: cddbd v1.5.2PL0 Copyright (c) Steve Scherf et al.
# Submitted via: audiograbber 1.83.01
#
DISCID=350fdb16
DTITLE=Mr. President - Knoxville
DYEAR=1900
DGENRE=Country
TTITLE0=Krudt i røven
TTITLE1=Diggy, diggy lo
TTITLE2=Hallo Charlie
TTITLE3=Sol og sommer
TTITLE4=Ta' mig med
TTITLE5=25 år
TTITLE6=Miss Asserbo
TTITLE7=Den sidste convoy
TTITLE8=det satans rakkerliv
TTITLE9=Frederikshavn
TTITLE10=Bette Åge
TTITLE11=Ved vejen
TTITLE12=Rejsefeber
TTITLE13=Hello Buddy
TTITLE14=Kør dyt
TTITLE15=Mr. President
TTITLE16=Hvorfor sku' jeg ta' til Texas
TTITLE17=Min far med det sølvhvide hår
TTITLE18=Kærlig hilsen din mand
TTITLE19=Hvis ikke du vil komme
TTITLE20=Fulde folk og små unger
TTITLE21=22
EXTD=
EXTT0=
EXTT1=
EXTT2=
EXTT3=
EXTT4=
EXTT5=
EXTT6=
EXTT7=
EXTT8=
EXTT9=
EXTT10=
EXTT11=
EXTT12=
EXTT13=
EXTT14=
EXTT15=
EXTT16=
EXTT17=
EXTT18=
EXTT19=
EXTT20=
EXTT21=
PLAYORDER=
